{"glyphs":{":":{"x_min":0,"x_max":250,"ha":250,"o":""},"$":{"x_min":0,"x_max":542,"ha":542,"o":"m 59 104 q 83 101 112 98 q 137 96 169 94 q 201 93 237 93 q 284 93 312 99 q 340 105 354 117 q 369 129 373 146 q 377 164 377 187 q 377 205 376 220 q 374 235 368 247 q 361 258 350 267 q 338 275 317 281 l 175 318 q 142 327 118 342 q 95 356 80 379 q 66 402 59 435 q 53 467 53 511 q 53 556 64 590 q 76 625 98 649 q 120 673 151 688 q 182 702 220 708 l 220 797 l 335 797 l 335 708 q 363 705 386 700 q 410 696 426 692 q 446 687 460 682 l 460 592 q 438 595 414 597 q 393 600 367 601 q 341 603 313 603 q 270 603 242 600 q 214 597 198 588 q 182 579 175 562 q 169 544 169 516 q 169 500 171 488 q 172 476 178 467 q 185 458 196 451 q 208 444 227 438 l 359 400 q 385 393 405 385 q 424 376 439 365 q 454 354 464 340 q 475 325 481 305 q 487 285 490 257 q 493 230 493 194 q 493 147 486 111 q 479 76 462 51 q 444 25 414 10 q 383 -5 335 -11 l 335 -100 l 220 -100 l 220 -14 q 174 -13 143 -7 q 112 -2 94 3 q 71 10 59 18 z"},"?":{"x_min":0,"x_max":501,"ha":501,"o":"m 169 375 q 211 378 242 385 q 273 391 294 405 q 314 418 325 440 q 335 462 335 496 q 335 529 326 550 q 317 571 299 583 q 281 595 254 600 q 228 604 193 604 q 171 604 147 602 q 124 599 104 597 q 80 594 57 590 l 57 678 q 57 678 70 683 q 84 688 109 693 q 134 699 168 703 q 203 708 245 708 q 285 708 323 699 q 360 689 390 666 q 419 643 437 602 q 454 561 454 498 q 454 444 439 407 q 425 371 401 348 q 377 325 347 312 q 316 299 285 293 l 285 206 l 169 206 z m 153 68 q 153 91 156 105 q 159 120 168 128 q 176 136 191 139 q 205 142 227 142 q 250 142 264 139 q 279 136 287 128 q 295 120 299 105 q 302 91 302 68 q 302 45 299 31 q 295 17 287 8 q 279 0 264 -4 q 250 -7 227 -7 q 205 -7 191 -4 q 176 0 168 8 q 159 17 156 31 q 153 45 153 68 z"},"<":{"x_min":0,"x_max":473,"ha":473,"o":"m 35 368 l 433 546 l 433 415 l 130 292 l 130 284 l 433 161 l 433 29 l 35 204 z"},"'":{"x_min":0,"x_max":250,"ha":250,"o":"m 67 796 l 183 796 l 172 560 l 78 560 z"},"=":{"x_min":0,"x_max":503,"ha":503,"o":"m 29 456 l 474 456 l 474 356 l 29 356 z m 29 251 l 474 251 l 474 150 l 29 150 z"},"a":{"x_min":0,"x_max":583,"ha":583,"o":"m 62 146 q 62 190 75 220 q 88 250 110 269 q 132 288 162 296 q 192 304 227 304 q 262 304 291 300 q 319 296 340 292 q 364 286 384 279 l 384 327 q 384 345 383 358 q 381 370 378 379 q 375 389 370 395 q 365 401 358 407 q 342 418 315 423 q 288 428 244 428 q 216 428 190 427 q 164 425 143 422 q 119 420 98 417 l 98 498 q 117 506 146 512 q 170 518 207 522 q 244 527 294 527 q 328 527 354 524 q 380 521 400 515 q 420 509 435 499 q 451 488 463 473 q 473 460 480 446 q 487 432 491 413 q 496 394 497 369 q 499 345 499 312 l 499 0 l 401 0 l 392 38 q 371 23 345 11 q 322 1 292 -7 q 262 -15 226 -15 q 182 -15 151 -6 q 120 2 100 21 q 80 41 71 71 q 62 102 62 146 z m 181 146 q 181 125 186 112 q 191 99 202 93 q 212 86 227 84 q 242 82 261 82 q 286 82 308 87 q 330 91 347 97 q 367 103 384 111 l 384 201 q 368 204 350 206 q 334 208 315 210 q 295 212 273 212 q 249 212 231 210 q 214 208 203 200 q 191 193 186 180 q 181 167 181 146 z"},"L":{"x_min":0,"x_max":516,"ha":516,"o":"m 89 697 l 206 697 l 206 109 l 494 109 l 494 0 l 89 0 z"},"3":{"x_min":0,"x_max":554,"ha":554,"o":"m 63 104 q 88 101 113 98 q 135 96 161 94 q 187 93 211 93 q 246 93 273 96 q 300 100 319 111 q 338 122 349 141 q 359 161 359 194 q 360 233 350 255 q 340 276 316 287 q 292 297 252 301 q 212 304 151 305 l 152 409 q 214 409 252 415 q 290 420 310 432 q 331 445 337 465 q 343 486 343 516 q 342 541 335 558 q 328 575 312 586 q 296 596 270 601 q 244 606 207 606 q 185 606 161 604 q 137 601 117 599 q 93 596 69 592 l 69 676 q 95 686 125 694 q 152 701 186 706 q 220 712 260 712 q 365 712 414 665 q 463 618 463 522 q 463 491 458 467 q 452 444 442 427 q 432 410 420 398 q 407 387 394 380 q 380 373 367 370 q 354 367 344 366 l 344 365 q 353 364 366 362 q 380 360 395 354 q 411 348 426 336 q 441 325 454 306 q 466 288 474 260 q 481 233 481 195 q 481 134 466 94 q 450 53 420 29 q 391 4 349 -6 q 307 -16 255 -16 q 219 -16 184 -11 q 149 -6 123 0 q 91 7 63 16 z"},";":{"x_min":0,"x_max":250,"ha":250,"o":""},"J":{"x_min":0,"x_max":345,"ha":345,"o":"m 7 89 q 18 88 30 88 q 41 87 52 87 q 64 87 75 87 q 91 87 103 88 q 115 90 123 96 q 131 103 135 115 q 139 128 139 152 l 139 697 l 256 697 l 257 116 q 257 79 248 54 q 240 30 223 15 q 206 0 181 -6 q 156 -12 124 -12 q 100 -12 79 -10 q 58 -7 42 -4 q 23 0 7 5 z"},"V":{"x_min":0,"x_max":656,"ha":656,"o":"m 236 0 l 0 697 l 134 697 l 324 109 l 332 109 l 522 697 l 656 697 l 420 0 z"},"\"":{"x_min":0,"x_max":420,"ha":420,"o":"m 248 796 l 364 796 l 353 560 l 259 560 z m 56 796 l 172 796 l 161 560 l 67 560 z"},"7":{"x_min":0,"x_max":524,"ha":524,"o":"m 352 586 l 352 588 l 32 588 l 32 697 l 490 697 l 490 620 l 232 0 l 97 0 z"},"S":{"x_min":0,"x_max":542,"ha":542,"o":"m 59 104 q 83 101 112 98 q 137 96 169 94 q 201 93 237 93 q 284 93 312 99 q 340 105 354 117 q 369 129 373 146 q 377 164 377 187 q 377 205 376 220 q 374 235 368 247 q 361 258 350 267 q 338 275 317 281 l 175 318 q 142 327 118 342 q 95 356 80 379 q 66 402 59 435 q 53 467 53 511 q 53 563 68 601 q 84 639 113 663 q 141 688 182 699 q 222 711 272 711 q 313 711 348 706 q 382 702 407 696 q 437 690 460 682 l 460 592 q 438 595 414 597 q 393 600 367 601 q 341 603 313 603 q 270 603 242 600 q 214 597 198 588 q 182 579 175 562 q 169 544 169 516 q 169 500 171 488 q 172 476 178 467 q 185 458 196 451 q 208 444 227 438 l 359 400 q 385 393 405 385 q 424 376 439 365 q 454 354 464 340 q 475 325 481 305 q 487 285 490 257 q 493 230 493 194 q 493 139 484 99 q 474 59 448 34 q 421 9 375 -3 q 329 -15 256 -15 q 199 -15 162 -10 q 125 -5 101 1 q 74 9 59 18 z"},"}":{"x_min":0,"x_max":377,"ha":377,"o":"m 8 -49 q 53 -49 79 -46 q 105 -44 119 -35 q 132 -25 136 -8 q 140 10 140 41 l 140 284 q 140 314 151 335 q 162 355 177 368 q 191 380 205 386 q 218 392 223 393 q 218 395 204 401 q 191 407 177 419 q 162 432 151 452 q 140 473 140 503 l 140 746 q 140 776 136 794 q 132 812 119 821 q 105 831 79 833 q 53 836 8 836 l 8 919 q 21 922 40 925 q 56 927 78 929 q 101 931 130 931 q 164 931 187 922 q 210 912 225 893 q 239 875 246 846 q 252 818 252 781 l 252 569 q 252 532 257 510 q 262 488 273 475 q 284 462 300 456 q 315 449 337 445 l 337 342 q 315 337 300 331 q 284 325 273 312 q 262 298 257 276 q 252 253 252 217 l 252 6 q 252 -32 246 -60 q 239 -88 225 -107 q 210 -126 187 -135 q 164 -145 130 -145 q 101 -145 78 -143 q 56 -141 40 -139 q 21 -136 8 -132 z"},"Z":{"x_min":0,"x_max":623,"ha":623,"o":"m 44 76 l 407 587 l 407 588 l 64 588 l 64 697 l 580 697 l 580 619 l 218 110 l 218 109 l 584 109 l 584 0 l 44 0 z"},"x":{"x_min":0,"x_max":514,"ha":514,"o":"m 192 262 l 18 515 l 156 515 l 267 354 l 376 515 l 502 515 l 329 265 l 512 0 l 374 0 l 254 173 l 128 0 l 2 0 z"},")":{"x_min":0,"x_max":315,"ha":315,"o":"m 20 -130 q 50 -74 75 0 q 85 31 95 70 q 105 108 113 153 q 121 197 125 248 q 130 299 130 355 q 130 411 125 462 q 121 513 113 557 q 105 602 95 640 q 85 679 75 710 q 50 784 20 841 l 110 841 q 149 799 180 731 q 193 703 205 665 q 218 627 228 581 q 237 534 243 477 q 250 421 250 354 q 250 288 243 231 q 237 175 228 129 q 218 83 205 45 q 193 8 180 -21 q 149 -88 110 -130 l 20 -130 z"},"&":{"x_min":0,"x_max":617,"ha":617,"o":"m 48 181 q 48 208 53 231 q 58 254 72 276 q 86 298 110 321 q 134 344 172 370 q 147 398 131 420 q 115 443 105 463 q 95 484 91 505 q 87 525 87 550 q 87 581 93 610 q 100 639 119 661 q 139 684 175 697 q 211 711 272 711 q 331 711 368 697 q 406 684 427 660 q 449 637 457 607 q 465 576 465 543 q 465 509 460 486 q 456 462 441 443 q 427 423 401 403 q 375 383 332 355 l 448 227 q 455 251 459 274 q 462 296 464 307 l 557 307 q 556 292 553 271 q 551 251 547 229 q 542 207 537 184 q 532 162 525 142 l 656 0 l 517 0 l 466 54 q 425 18 377 2 q 330 -14 278 -14 q 216 -14 173 -4 q 129 6 101 29 q 74 52 61 90 q 48 127 48 181 z m 265 430 q 294 449 313 463 q 331 478 341 490 q 351 502 354 514 q 357 526 357 542 q 357 563 353 578 q 350 593 340 602 q 331 611 315 615 q 299 619 275 619 q 251 619 235 615 q 220 610 211 601 q 202 591 198 577 q 195 562 195 542 q 195 531 200 518 q 206 505 215 491 q 225 477 237 461 q 250 446 265 430 z m 164 178 q 164 155 169 138 q 174 122 188 111 q 201 100 223 94 q 246 89 281 89 q 294 89 309 91 q 324 92 339 97 q 354 101 369 109 q 384 117 397 128 l 243 295 q 216 275 200 260 q 185 245 177 231 q 168 218 166 206 q 164 193 164 178 z"},"_":{"x_min":0,"x_max":476,"ha":476,"o":"m 481 -38 l 481 -121 l -5 -121 l -5 -38 z"},"v":{"x_min":0,"x_max":514,"ha":514,"o":"m 3 515 l 129 515 l 256 108 l 258 108 l 385 515 l 511 515 l 333 0 l 181 0 z"},"O":{"x_min":0,"x_max":684,"ha":684,"o":"m 343 -15 q 298 -15 259 -9 q 221 -2 189 13 q 157 29 133 56 q 108 82 91 122 q 74 163 65 218 q 56 273 56 346 q 56 456 76 527 q 95 598 132 638 q 169 679 223 695 q 276 711 343 711 q 387 711 426 704 q 464 697 496 681 q 528 665 552 638 q 577 611 594 570 q 610 530 619 474 q 628 419 628 346 q 628 273 619 218 q 610 163 594 123 q 577 83 552 56 q 528 29 496 14 q 464 -2 426 -9 q 387 -15 343 -15 z m 343 93 q 391 93 422 104 q 454 115 472 144 q 491 172 498 221 q 506 271 506 346 q 506 422 498 472 q 491 521 472 550 q 454 579 422 591 q 391 602 343 602 q 295 602 263 591 q 231 579 213 550 q 194 521 187 472 q 179 422 179 346 q 179 271 187 221 q 194 172 213 144 q 231 115 263 104 q 295 93 343 93 z"},"(":{"x_min":0,"x_max":316,"ha":316,"o":"m 206 -130 q 167 -88 136 -21 q 123 8 110 45 q 98 83 88 129 q 78 175 72 231 q 66 288 66 354 q 66 421 72 477 q 78 534 88 581 q 98 627 110 665 q 123 703 136 731 q 167 799 206 841 l 297 841 q 266 784 241 710 q 231 679 221 640 q 211 602 203 557 q 195 513 191 462 q 186 411 186 355 q 186 299 191 248 q 195 197 203 153 q 211 108 221 70 q 231 31 241 0 q 266 -74 297 -130 l 206 -130 z"},"C":{"x_min":0,"x_max":576,"ha":576,"o":"m 328 -12 q 294 -12 261 -6 q 228 0 198 16 q 167 32 142 58 q 116 85 97 126 q 78 167 67 223 q 56 279 56 354 q 56 426 68 481 q 81 535 101 575 q 122 614 149 640 q 176 666 207 681 q 237 696 268 702 q 299 708 328 708 q 377 708 413 703 q 449 698 474 692 q 502 686 522 677 l 522 593 q 502 594 479 596 q 459 597 434 598 q 409 599 382 599 q 357 599 332 597 q 308 595 285 587 q 262 579 243 563 q 223 548 209 521 q 194 494 186 453 q 178 413 178 355 q 178 294 187 251 q 195 208 209 180 q 224 151 244 134 q 263 118 286 109 q 309 101 334 98 q 359 96 384 96 q 416 96 442 97 q 469 98 487 99 q 509 101 527 102 l 527 18 q 505 9 476 3 q 451 -3 414 -8 q 377 -12 328 -12 z"},"W":{"x_min":0,"x_max":948,"ha":948,"o":"m 17 697 l 141 697 l 262 109 l 264 109 l 379 697 l 574 697 l 696 109 l 698 109 l 812 697 l 931 697 l 783 0 l 600 0 l 477 598 l 475 598 l 359 0 l 174 0 z"},"A":{"x_min":0,"x_max":623,"ha":623,"o":"m 233 697 l 388 697 l 616 0 l 487 0 l 428 189 l 191 189 l 135 0 l 7 0 z m 396 294 l 310 589 l 308 589 l 222 294 z"},"f":{"x_min":0,"x_max":378,"ha":378,"o":"m 116 419 l 44 419 l 44 515 l 116 515 l 116 601 q 116 641 124 671 q 131 702 148 723 q 166 744 194 755 q 222 766 262 766 q 292 766 317 763 q 342 760 359 756 q 379 752 395 747 l 395 661 q 382 662 367 663 q 354 664 337 665 q 321 665 303 665 q 282 665 268 662 q 254 659 246 652 q 238 645 235 633 q 232 622 232 606 l 232 515 l 364 515 l 364 419 l 232 419 l 232 0 l 116 0 z"},"Q":{"x_min":0,"x_max":685,"ha":685,"o":"m 343 -15 q 298 -15 259 -9 q 221 -2 189 13 q 157 29 133 56 q 108 82 91 122 q 74 163 65 218 q 56 273 56 346 q 56 456 76 527 q 95 598 132 638 q 169 679 223 695 q 276 711 343 711 q 387 711 426 704 q 464 697 496 681 q 528 665 552 638 q 577 611 594 570 q 610 530 619 474 q 628 419 628 346 q 628 287 622 240 q 616 192 605 155 q 594 118 578 91 q 561 63 540 44 l 611 -56 l 505 -56 l 464 1 q 438 -7 407 -11 q 377 -15 343 -15 z m 343 93 q 357 93 371 94 q 384 95 395 97 l 316 210 l 421 210 l 469 140 q 490 168 498 218 q 506 268 506 346 q 506 422 498 472 q 491 521 472 550 q 454 579 422 591 q 391 602 343 602 q 295 602 263 591 q 231 579 213 550 q 194 521 187 472 q 179 422 179 346 q 179 271 187 221 q 194 172 213 144 q 231 115 263 104 q 295 93 343 93 z"},"w":{"x_min":0,"x_max":759,"ha":759,"o":"m 6 515 l 122 515 l 218 103 l 226 103 l 307 515 l 466 515 l 547 103 l 554 103 l 652 515 l 753 515 l 623 0 l 471 0 l 385 405 l 377 405 l 300 0 l 140 0 z"},"-":{"x_min":0,"x_max":388,"ha":388,"o":"m 29 343 l 358 343 l 358 232 l 29 232 z"},"E":{"x_min":0,"x_max":561,"ha":561,"o":"m 89 697 l 508 697 l 508 588 l 206 588 l 206 405 l 459 405 l 459 298 l 206 298 l 206 109 l 516 109 l 516 0 l 89 0 z"},"s":{"x_min":0,"x_max":505,"ha":505,"o":"m 57 99 q 78 94 104 90 q 127 87 157 84 q 188 82 225 82 q 265 82 288 85 q 312 88 323 95 q 335 102 339 114 q 342 126 342 145 q 342 155 341 163 q 340 171 335 177 q 331 184 322 189 q 312 193 297 196 l 189 216 q 152 222 127 233 q 102 244 86 261 q 71 279 64 305 q 58 332 58 369 q 58 450 112 490 q 166 530 266 530 q 301 530 330 526 q 360 521 382 516 q 407 510 428 503 l 428 420 q 405 424 379 427 q 357 429 330 432 q 303 434 275 434 q 244 434 223 431 q 202 429 189 422 q 177 416 172 406 q 167 396 167 381 q 167 369 169 360 q 171 351 178 343 q 184 336 195 331 q 207 325 226 322 l 337 301 q 370 294 393 284 q 416 274 430 256 q 444 239 450 212 q 457 185 457 145 q 457 107 449 78 q 441 48 418 27 q 396 7 354 -4 q 312 -15 243 -15 q 205 -15 171 -10 q 137 -5 112 1 q 82 9 57 18 z"},">":{"x_min":0,"x_max":473,"ha":473,"o":"m 40 33 l 40 165 l 343 288 l 343 296 l 40 419 l 40 550 l 438 372 l 438 208 z"},"l":{"x_min":0,"x_max":278,"ha":278,"o":"m 81 759 l 197 759 l 197 0 l 81 0 z"},"8":{"x_min":0,"x_max":612,"ha":612,"o":"m 73 198 q 73 229 79 254 q 85 278 95 296 q 104 314 116 326 q 128 338 139 346 q 151 354 160 357 q 170 361 175 362 l 175 363 q 166 365 151 373 q 137 380 123 397 q 109 413 100 440 q 90 467 90 507 q 90 551 100 589 q 110 626 135 654 q 160 681 202 696 q 244 711 308 711 q 371 711 413 696 q 455 681 479 654 q 504 626 514 589 q 524 551 524 507 q 524 467 514 440 q 505 414 491 397 q 478 381 463 374 q 449 366 439 363 l 439 362 q 444 361 453 357 q 463 354 474 346 q 485 338 497 326 q 508 314 518 296 q 527 278 533 254 q 540 229 540 198 q 540 133 522 92 q 505 50 474 27 q 443 3 400 -5 q 357 -14 306 -14 q 254 -14 212 -5 q 169 3 138 27 q 107 50 90 92 q 73 133 73 198 z m 307 404 q 335 404 355 409 q 375 415 387 427 q 399 439 404 459 q 410 479 410 507 q 410 535 404 554 q 399 573 387 585 q 375 597 355 602 q 335 607 307 607 q 278 607 259 602 q 239 597 226 585 q 214 573 208 554 q 203 535 203 507 q 203 479 208 459 q 214 439 226 427 q 239 415 259 409 q 278 404 307 404 z m 192 198 q 192 163 199 142 q 206 121 220 110 q 235 99 256 95 q 278 92 307 92 q 335 92 357 95 q 379 99 393 110 q 408 121 415 142 q 422 163 422 198 q 422 233 415 255 q 408 277 393 290 q 379 303 357 308 q 335 313 307 313 q 278 313 256 308 q 235 303 220 290 q 206 277 199 255 q 192 233 192 198 z"},"\\":{"x_min":0,"x_max":452,"ha":452,"o":"m 15 759 l 133 759 l 447 0 l 329 0 z"},"e":{"x_min":0,"x_max":530,"ha":530,"o":"m 46 263 q 46 344 67 396 q 88 447 123 477 q 157 507 202 518 q 246 530 293 530 q 352 530 391 514 q 430 498 453 469 q 476 439 485 399 q 494 358 494 310 q 494 287 492 262 q 491 238 488 212 l 165 212 q 166 177 173 154 q 180 130 196 115 q 212 100 240 94 q 267 87 307 87 q 341 87 371 89 q 401 90 423 93 q 450 95 471 99 l 471 18 q 446 9 417 1 q 392 -5 359 -10 q 326 -15 288 -15 q 230 -15 186 -1 q 141 14 110 47 q 79 80 62 133 q 46 186 46 263 z m 387 299 l 387 317 q 387 347 384 368 q 380 390 369 404 q 357 418 337 425 q 316 432 282 432 q 246 432 222 424 q 199 415 186 398 q 173 381 169 356 q 164 332 164 299 z"},"b":{"x_min":0,"x_max":600,"ha":600,"o":"m 81 759 l 197 759 l 197 493 q 220 503 247 511 q 270 518 301 524 q 333 530 369 530 q 421 530 455 511 q 489 493 509 458 q 529 423 537 373 q 545 323 545 260 q 545 184 533 131 q 521 79 498 46 q 475 14 441 -1 q 407 -15 364 -15 q 327 -15 295 -7 q 263 2 239 13 q 211 25 188 41 l 181 0 l 81 0 z m 197 116 q 212 108 232 103 q 250 97 273 93 q 297 89 327 89 q 356 89 375 97 q 394 106 404 125 q 415 145 419 176 q 423 208 423 254 q 423 306 419 339 q 416 373 405 392 q 394 412 373 419 q 352 427 316 427 q 293 427 272 424 q 251 421 234 417 q 215 413 197 408 z"},"%":{"x_min":0,"x_max":745,"ha":745,"o":"m 554 759 l 663 759 l 198 0 l 90 0 z m 188 409 q 152 409 124 418 q 95 426 74 447 q 54 467 43 500 q 32 534 32 584 q 32 635 43 668 q 54 702 74 722 q 95 742 124 750 q 152 759 188 759 q 224 759 253 750 q 282 742 303 722 q 323 702 334 668 q 346 635 346 584 q 346 534 334 500 q 323 467 303 447 q 282 426 253 418 q 224 409 188 409 z m 188 499 q 205 499 217 503 q 229 506 236 516 q 244 525 247 542 q 250 558 250 584 q 250 610 247 626 q 244 643 236 652 q 229 662 217 665 q 205 669 188 669 q 173 669 161 665 q 149 662 142 652 q 134 643 130 626 q 126 610 126 584 q 126 558 130 542 q 134 525 142 516 q 149 506 161 503 q 173 499 188 499 z m 401 160 q 401 210 413 244 q 424 277 444 298 q 465 318 494 326 q 523 335 559 335 q 595 335 624 326 q 653 318 674 298 q 694 277 706 244 q 717 210 717 160 q 717 109 706 76 q 694 42 674 22 q 653 1 624 -7 q 595 -15 559 -15 q 523 -15 494 -7 q 465 1 444 22 q 424 42 413 76 q 401 109 401 160 z m 497 160 q 497 134 500 118 q 503 101 511 92 q 519 82 530 79 q 542 75 559 75 q 575 75 587 79 q 599 82 606 92 q 614 101 617 118 q 621 134 621 160 q 621 186 617 202 q 614 219 606 228 q 599 238 587 241 q 575 245 559 245 q 542 245 530 241 q 519 238 511 228 q 503 219 500 202 q 497 186 497 160 z"},"m":{"x_min":0,"x_max":890,"ha":890,"o":"m 81 515 l 166 515 l 180 477 q 208 492 238 503 q 265 513 298 521 q 332 530 367 530 q 410 530 438 516 q 466 502 482 475 q 494 482 514 491 q 533 500 558 509 q 582 518 611 524 q 641 530 673 530 q 744 530 777 490 q 810 449 810 365 l 810 0 l 694 0 l 694 343 q 694 366 691 382 q 688 398 680 408 q 671 418 657 422 q 643 427 619 427 q 601 427 583 425 q 566 422 551 419 q 535 416 523 412 q 510 408 501 405 q 503 392 503 378 q 504 364 504 355 l 504 0 l 388 0 l 388 343 q 388 366 385 382 q 382 398 374 408 q 365 418 351 422 q 337 427 316 427 q 292 427 270 423 q 249 419 232 416 q 213 411 197 405 l 197 0 l 81 0 z"},"#":{"x_min":0,"x_max":644,"ha":644,"o":"m 125 184 l 29 184 l 29 273 l 146 273 l 181 424 l 80 424 l 80 514 l 202 514 l 244 697 l 346 697 l 304 514 l 438 514 l 480 697 l 583 697 l 541 514 l 638 514 l 638 424 l 520 424 l 485 273 l 587 273 l 587 184 l 464 184 l 422 0 l 320 0 l 362 184 l 228 184 l 186 0 l 83 0 z m 382 273 l 417 424 l 283 424 l 249 273 z"},",":{"x_min":0,"x_max":250,"ha":250,"o":"m 51 62 q 51 84 55 99 q 58 113 67 122 q 75 130 89 134 q 104 137 125 137 q 150 137 165 130 q 180 123 188 110 q 196 97 198 78 q 201 59 201 34 q 201 -2 189 -39 q 178 -76 162 -108 q 146 -139 127 -163 q 108 -186 94 -195 l 50 -163 q 61 -148 71 -130 q 81 -111 88 -91 q 96 -70 101 -49 q 106 -28 106 -9 q 77 -5 64 10 q 51 26 51 62 z"},"n":{"x_min":0,"x_max":607,"ha":607,"o":"m 81 515 l 166 515 l 180 477 q 207 492 239 503 q 266 513 302 521 q 337 530 378 530 q 454 530 490 490 q 527 450 527 365 l 527 0 l 411 0 l 411 351 q 411 371 408 385 q 406 400 397 409 q 388 418 372 422 q 355 427 327 427 q 298 427 274 423 q 250 419 233 416 q 213 411 197 405 l 197 0 l 81 0 z"},"h":{"x_min":0,"x_max":612,"ha":612,"o":"m 81 759 l 197 759 l 197 490 q 223 500 252 508 q 278 515 311 521 q 344 527 379 527 q 414 527 443 519 q 471 512 491 492 q 511 473 521 440 q 532 407 532 356 l 532 0 l 416 0 l 416 342 q 416 362 413 378 q 410 393 401 403 q 391 413 373 418 q 355 423 326 423 q 303 423 280 420 q 257 417 239 414 q 217 410 197 405 l 197 0 l 81 0 z"},"z":{"x_min":0,"x_max":533,"ha":533,"o":"m 57 77 l 318 415 l 318 416 l 67 416 l 67 515 l 478 515 l 478 442 l 216 103 l 216 102 l 484 102 l 484 0 l 57 0 z"},"B":{"x_min":0,"x_max":641,"ha":641,"o":"m 89 697 l 362 697 q 413 697 449 685 q 485 674 509 650 q 532 626 542 591 q 553 555 553 506 q 553 464 545 438 q 536 413 523 397 q 511 382 495 376 q 479 369 466 366 l 466 365 q 475 364 487 361 q 499 358 512 351 q 525 345 538 334 q 551 323 561 306 q 571 289 578 264 q 584 240 584 208 q 584 144 571 103 q 559 62 533 40 q 507 17 468 8 q 429 0 376 0 l 89 0 z m 339 403 q 365 403 384 406 q 402 410 414 420 q 426 431 432 450 q 437 469 437 500 q 437 526 431 543 q 424 561 412 571 q 400 581 382 585 q 364 590 342 590 l 206 590 l 206 403 z m 362 107 q 384 107 403 111 q 421 114 434 125 q 447 136 454 155 q 461 174 461 206 q 461 238 455 257 q 449 276 436 287 q 423 297 403 300 q 383 303 356 303 l 206 303 l 206 107 z"},"K":{"x_min":0,"x_max":641,"ha":641,"o":"m 89 697 l 206 697 l 206 412 l 313 412 l 476 697 l 611 697 l 417 360 l 623 0 l 485 0 l 313 303 l 206 303 l 206 0 l 89 0 z"},"R":{"x_min":0,"x_max":627,"ha":627,"o":"m 89 697 l 348 697 q 376 697 403 693 q 429 689 453 680 q 477 671 496 655 q 516 639 530 614 q 544 589 552 555 q 560 520 560 473 q 560 442 555 417 q 550 393 541 374 q 533 354 522 340 q 511 326 500 316 q 473 292 439 283 l 439 282 l 586 0 l 452 0 l 322 256 l 206 256 l 206 0 l 89 0 z m 347 366 q 439 366 439 480 q 439 510 432 531 q 426 551 413 564 q 401 577 383 582 q 366 588 344 588 l 206 588 l 206 366 z"},"T":{"x_min":0,"x_max":548,"ha":548,"o":"m 215 589 l 6 589 l 6 697 l 542 697 l 542 589 l 331 589 l 331 0 l 215 0 z"},"P":{"x_min":0,"x_max":593,"ha":593,"o":"m 89 697 l 365 697 q 388 697 411 693 q 434 690 455 680 q 476 671 494 655 q 512 639 525 614 q 539 588 547 553 q 554 517 554 469 q 554 421 546 386 q 538 351 523 326 q 509 301 490 285 q 471 270 450 260 q 428 251 406 248 q 383 245 361 245 l 206 245 l 206 0 l 89 0 z m 347 354 q 374 354 390 363 q 406 372 416 387 q 425 403 429 424 q 432 445 432 469 q 432 493 429 515 q 425 536 416 552 q 406 569 390 578 q 374 588 347 588 l 206 588 l 206 354 z"},"|":{"x_min":0,"x_max":334,"ha":334,"o":"m 111 776 l 223 776 l 223 -238 l 111 -238 z"},"t":{"x_min":0,"x_max":422,"ha":422,"o":"m 117 419 l 41 419 l 41 515 l 117 515 l 117 624 l 233 650 l 233 515 l 363 515 l 363 419 l 233 419 l 233 142 q 233 124 236 112 q 238 101 245 94 q 252 86 265 84 q 278 81 299 81 q 318 81 333 82 q 349 83 359 83 q 372 84 382 86 l 382 9 q 365 2 345 -3 q 328 -8 305 -11 q 282 -15 255 -15 q 217 -15 191 -8 q 165 0 148 14 q 132 29 125 52 q 117 75 117 105 z"},"M":{"x_min":0,"x_max":847,"ha":847,"o":"m 89 697 l 292 697 l 421 277 l 425 277 l 558 697 l 758 697 l 758 0 l 641 0 l 641 588 l 638 588 l 625 544 q 620 525 613 505 q 607 485 602 470 l 512 189 l 337 189 l 245 472 q 240 487 234 507 q 228 526 222 544 q 216 565 209 588 l 206 588 l 206 0 l 89 0 z"},"g":{"x_min":0,"x_max":600,"ha":600,"o":"m 122 -129 q 139 -133 162 -135 q 182 -138 209 -139 q 237 -141 271 -141 q 312 -141 337 -138 q 363 -135 377 -127 q 392 -119 397 -105 q 402 -91 402 -70 l 402 20 q 380 11 356 3 q 334 -3 307 -8 q 280 -13 250 -13 q 199 -13 162 1 q 125 15 102 47 q 78 79 67 131 q 56 184 56 260 q 56 322 68 372 q 80 421 104 456 q 127 490 162 509 q 197 527 243 527 q 281 527 313 519 q 345 511 369 502 q 396 491 417 477 l 431 515 l 519 515 l 519 -77 q 519 -124 505 -156 q 492 -188 465 -207 q 438 -227 397 -236 q 356 -244 303 -244 q 269 -244 236 -240 q 204 -235 178 -229 q 148 -223 122 -214 z m 292 91 q 312 91 332 93 q 352 94 367 97 q 386 99 402 103 l 402 398 q 383 405 361 410 q 343 415 319 419 q 295 423 270 423 q 244 423 226 415 q 208 406 198 387 q 187 367 182 335 q 178 303 178 255 q 178 211 181 180 q 184 148 195 129 q 206 109 229 100 q 252 91 292 91 z"},"j":{"x_min":0,"x_max":308,"ha":308,"o":"m 160 598 q 140 598 127 601 q 114 604 106 611 q 98 618 95 631 q 92 644 92 664 q 92 684 95 697 q 98 709 106 717 q 114 725 127 728 q 140 731 160 731 q 179 731 192 728 q 206 725 214 717 q 222 709 225 697 q 228 684 228 664 q 228 644 225 631 q 222 618 214 611 q 206 604 192 601 q 179 598 160 598 z m -20 -140 q -10 -141 1 -141 q 11 -142 24 -142 q 37 -143 52 -143 q 63 -143 72 -141 q 82 -140 88 -135 q 95 -130 99 -122 q 103 -114 103 -101 l 103 515 l 219 515 l 219 -130 q 219 -165 209 -187 q 199 -209 183 -221 q 167 -234 146 -239 q 125 -243 103 -243 q 74 -243 51 -240 q 28 -236 13 -232 q -6 -227 -20 -220 z"},"i":{"x_min":0,"x_max":295,"ha":295,"o":"m 148 603 q 128 603 115 605 q 102 608 94 616 q 86 623 83 636 q 80 648 80 668 q 80 688 83 701 q 86 714 94 722 q 102 730 115 733 q 128 736 148 736 q 168 736 181 733 q 194 730 202 722 q 209 714 212 701 q 215 688 215 668 q 215 648 212 636 q 209 623 202 616 q 194 608 181 605 q 168 603 148 603 z m 90 515 l 206 515 l 206 0 l 90 0 z"},"y":{"x_min":0,"x_max":532,"ha":532,"o":"m 62 -147 q 69 -148 78 -148 q 93 -150 123 -150 q 140 -150 152 -146 q 165 -143 174 -135 q 183 -127 190 -116 q 197 -104 203 -87 l 235 0 l 185 0 l 6 515 l 135 515 l 267 102 l 271 102 l 404 515 l 532 515 l 311 -107 q 297 -145 283 -171 q 269 -197 252 -213 q 235 -229 215 -237 q 195 -244 172 -244 q 145 -244 125 -242 q 104 -239 90 -236 q 74 -232 62 -227 l 62 -147 z"},"@":{"x_min":0,"x_max":811,"ha":811,"o":"m 62 379 q 62 483 86 556 q 111 628 158 674 q 205 719 274 739 q 343 759 431 759 q 500 759 552 750 q 605 742 644 723 q 682 705 708 675 q 734 646 750 603 q 766 561 772 505 q 779 450 779 379 q 779 320 765 278 q 751 236 728 210 q 704 184 672 171 q 641 159 604 158 q 601 158 597 158 q 594 158 590 158 q 571 158 557 159 q 542 161 531 163 q 519 165 509 168 l 496 205 q 483 198 469 190 q 456 182 440 175 q 424 167 406 163 q 389 158 371 158 q 301 158 266 210 q 230 261 230 369 q 230 477 266 529 q 301 580 371 580 q 396 580 419 574 q 442 568 459 562 q 480 553 498 543 l 510 573 l 591 573 l 591 241 q 618 241 635 247 q 653 253 664 268 q 675 283 679 310 q 684 336 684 377 q 684 427 681 468 q 679 509 671 541 q 662 573 646 596 q 629 620 601 635 q 573 651 531 658 q 490 666 431 666 q 354 666 302 649 q 250 632 217 597 q 185 562 171 507 q 157 452 157 377 q 157 298 170 242 q 184 186 215 149 q 247 113 300 95 q 352 78 431 78 q 507 78 560 83 q 612 87 645 93 q 683 99 707 108 l 707 26 q 679 14 638 5 q 604 -2 552 -9 q 500 -15 431 -15 q 337 -15 268 6 q 199 26 153 73 q 107 120 84 195 q 62 270 62 379 z m 409 245 q 424 245 438 247 q 452 249 463 251 q 476 254 488 258 l 488 474 q 476 479 463 482 q 452 486 438 489 q 423 491 408 491 q 392 491 379 485 q 365 479 355 465 q 345 451 339 428 q 333 404 333 369 q 333 331 339 307 q 345 283 355 269 q 365 255 378 250 q 392 245 409 245 z"},".":{"x_min":0,"x_max":250,"ha":250,"o":"m 50 68 q 50 91 53 105 q 57 120 65 128 q 74 136 88 139 q 103 142 125 142 q 147 142 162 139 q 176 136 185 128 q 193 120 196 105 q 200 91 200 68 q 200 45 196 31 q 193 17 185 8 q 176 0 162 -4 q 147 -7 125 -7 q 103 -7 88 -4 q 74 0 65 8 q 57 17 53 31 q 50 45 50 68 z"},"p":{"x_min":0,"x_max":595,"ha":595,"o":"m 197 -237 l 81 -237 l 81 515 l 166 515 l 180 477 q 207 492 239 503 q 266 513 302 521 q 337 530 378 530 q 419 530 449 514 q 479 499 500 466 q 520 433 530 382 q 540 330 540 258 q 540 181 528 129 q 516 77 492 45 q 469 13 434 -1 q 399 -15 354 -15 q 321 -15 293 -10 q 264 -4 243 2 q 218 10 197 20 z m 197 103 q 211 99 229 96 q 244 93 264 91 q 285 89 311 89 q 343 89 364 95 q 384 101 396 120 q 408 138 413 172 q 418 206 418 261 q 418 307 414 338 q 411 370 401 389 q 391 409 373 418 q 355 427 327 427 q 302 427 278 423 q 255 419 237 416 q 215 411 197 405 z"},"X":{"x_min":0,"x_max":618,"ha":618,"o":"m 237 358 l 19 697 l 161 697 l 311 464 l 454 697 l 591 697 l 377 361 l 610 0 l 469 0 l 305 253 l 145 0 l 7 0 z"},"*":{"x_min":0,"x_max":423,"ha":423,"o":"m 50 421 l 138 534 l 3 573 l 33 667 l 167 619 l 163 759 l 262 759 l 257 615 l 389 665 l 420 569 l 282 530 l 370 420 l 289 361 l 209 478 l 131 362 z"},"Y":{"x_min":0,"x_max":596,"ha":596,"o":"m 240 269 l 0 697 l 137 697 l 297 393 l 299 393 l 459 697 l 596 697 l 356 269 l 356 0 l 240 0 z"},"c":{"x_min":0,"x_max":471,"ha":471,"o":"m 46 258 q 46 331 64 382 q 82 434 112 466 q 143 498 184 512 q 225 527 271 527 q 307 527 335 522 q 363 518 383 512 q 407 506 424 498 l 424 418 q 407 419 388 421 q 371 422 350 424 q 329 425 306 425 q 270 425 243 418 q 217 412 200 394 q 184 376 176 344 q 168 312 168 259 q 168 205 177 172 q 186 139 205 120 q 223 102 251 96 q 279 90 317 90 q 341 90 361 91 q 381 92 396 94 q 414 96 428 99 l 428 18 q 413 9 390 2 q 371 -3 342 -8 q 313 -13 275 -13 q 228 -13 186 0 q 144 13 113 44 q 82 75 64 127 q 46 179 46 258 z"},"!":{"x_min":0,"x_max":250,"ha":250,"o":"m 84 697 l 201 697 l 201 213 l 84 213 z m 68 68 q 68 91 71 105 q 74 120 83 128 q 91 136 106 139 q 120 142 142 142 q 165 142 179 139 q 194 136 202 128 q 210 120 214 105 q 217 91 217 68 q 217 45 214 31 q 210 17 202 8 q 194 0 179 -4 q 165 -7 142 -7 q 120 -7 106 -4 q 91 0 83 8 q 74 17 71 31 q 68 45 68 68 z"},"/":{"x_min":0,"x_max":451,"ha":451,"o":"m 319 759 l 437 759 l 123 0 l 5 0 z"},"[":{"x_min":0,"x_max":332,"ha":332,"o":"m 89 949 l 332 949 l 332 839 l 203 839 l 203 -51 l 332 -51 l 332 -161 l 89 -161 z"},"6":{"x_min":0,"x_max":580,"ha":580,"o":"m 76 464 q 76 520 87 566 q 99 611 125 644 q 152 676 196 693 q 239 711 304 711 q 346 711 378 706 q 411 700 434 694 q 460 686 480 677 l 480 590 q 461 593 439 596 q 420 598 396 600 q 372 602 346 602 q 303 602 274 598 q 245 594 226 580 q 208 567 200 541 q 192 516 192 473 l 192 408 q 212 418 234 425 q 256 433 278 437 q 300 442 321 444 q 342 447 361 447 q 398 447 429 436 q 460 424 482 398 q 504 371 517 327 q 529 283 529 218 q 529 154 513 109 q 498 65 469 37 q 439 10 396 -3 q 353 -15 298 -15 q 247 -15 206 -3 q 165 8 136 34 q 107 59 91 99 q 76 139 76 195 z m 192 219 q 192 186 196 162 q 200 138 212 123 q 223 107 244 100 q 265 93 298 93 q 331 93 352 100 q 373 107 385 123 q 398 138 403 163 q 408 187 408 222 q 408 260 402 284 q 396 307 383 320 q 370 333 349 337 q 328 342 298 342 q 277 342 258 339 q 239 336 224 333 q 209 329 200 326 q 191 323 192 323 z"},"r":{"x_min":0,"x_max":398,"ha":398,"o":"m 81 515 l 181 515 l 188 459 q 226 484 273 500 q 321 516 380 519 l 379 399 q 318 398 273 393 q 229 388 197 375 l 197 0 l 81 0 z"},"2":{"x_min":0,"x_max":562,"ha":562,"o":"m 51 70 q 136 158 195 225 q 254 291 291 342 q 327 393 344 432 q 360 472 360 506 q 360 530 354 548 q 348 566 333 578 q 318 590 292 596 q 266 602 226 602 q 198 602 171 599 q 144 597 122 594 q 96 590 72 586 l 72 676 q 96 686 126 694 q 152 701 188 706 q 223 712 266 712 q 326 712 367 699 q 408 687 434 663 q 459 638 471 601 q 482 564 482 515 q 482 478 469 435 q 457 393 427 343 q 396 293 347 236 q 297 178 224 110 l 224 109 l 482 109 l 482 0 l 51 0 z"},"{":{"x_min":0,"x_max":377,"ha":377,"o":"m 125 217 q 125 253 120 276 q 115 298 104 312 q 93 325 77 331 q 62 337 40 342 l 40 445 q 62 449 77 456 q 93 462 104 475 q 115 488 120 510 q 125 532 125 569 l 125 781 q 125 818 131 846 q 138 875 152 893 q 166 912 189 922 q 213 931 247 931 q 276 931 299 929 q 321 927 337 925 q 355 922 369 919 l 369 836 q 324 836 298 833 q 271 831 258 821 q 244 812 240 794 q 237 776 237 746 l 237 503 q 237 473 226 452 q 214 432 200 419 q 186 407 172 401 q 159 395 154 393 q 158 392 172 386 q 186 380 200 368 q 214 355 226 335 q 237 314 237 284 l 237 41 q 237 10 240 -8 q 244 -25 258 -35 q 271 -44 298 -46 q 324 -49 369 -49 l 369 -132 q 355 -136 337 -139 q 321 -141 299 -143 q 276 -145 247 -145 q 213 -145 189 -135 q 166 -126 152 -107 q 138 -88 131 -60 q 125 -32 125 6 z"},"9":{"x_min":0,"x_max":586,"ha":586,"o":"m 100 106 q 119 103 142 101 q 161 98 185 97 q 210 95 236 95 q 278 95 308 100 q 338 104 357 115 q 375 125 384 144 q 393 162 393 190 l 393 277 q 373 268 351 261 q 329 255 307 251 q 285 247 264 245 q 243 243 224 243 q 187 243 156 255 q 125 267 103 294 q 81 321 68 365 q 56 410 56 475 q 56 545 72 591 q 87 636 116 663 q 146 690 189 700 q 232 711 287 711 q 335 711 370 705 q 405 699 430 684 q 455 670 470 646 q 486 622 495 586 q 504 550 507 502 q 510 454 510 390 l 510 171 q 510 121 496 86 q 482 50 453 28 q 424 6 378 -5 q 333 -15 269 -15 q 237 -15 207 -11 q 177 -6 153 -1 q 125 5 100 13 z m 287 348 q 308 348 327 350 q 346 353 361 355 q 376 357 385 360 q 394 362 393 362 l 393 480 q 393 517 388 540 q 383 564 371 578 q 359 591 339 597 q 318 602 287 602 q 255 602 234 597 q 213 592 200 578 q 187 564 181 539 q 175 515 175 475 q 175 435 181 410 q 188 385 201 372 q 215 358 236 353 q 257 348 287 348 z"}," ":{"x_min":0,"x_max":250,"ha":250,"o":""},"I":{"x_min":0,"x_max":295,"ha":295,"o":"m 89 697 l 206 697 l 206 0 l 89 0 z"},"H":{"x_min":0,"x_max":711,"ha":711,"o":"m 89 697 l 206 697 l 206 408 l 505 408 l 505 697 l 622 697 l 622 0 l 505 0 l 505 299 l 206 299 l 206 0 l 89 0 z"},"4":{"x_min":0,"x_max":598,"ha":598,"o":"m 32 220 l 299 697 l 474 697 l 474 247 l 549 247 l 549 143 l 474 143 l 474 0 l 358 0 l 358 143 l 32 143 z m 358 247 l 359 604 l 356 604 l 161 247 z"},"~":{"x_min":0,"x_max":675,"ha":675,"o":"m 29 197 q 31 233 42 263 q 53 294 73 317 q 93 339 122 353 q 151 366 188 368 q 210 370 237 363 q 264 355 292 344 q 319 333 347 319 q 375 305 400 293 q 426 282 448 274 q 470 267 486 268 q 502 269 515 273 q 527 278 538 288 q 548 297 558 312 q 567 326 577 345 l 646 325 q 644 289 633 259 q 622 229 602 207 q 582 185 553 172 q 524 159 487 157 q 458 155 430 162 q 402 168 376 180 q 350 191 325 205 q 300 218 277 230 q 254 241 232 248 q 209 255 188 254 q 156 252 134 234 q 112 215 99 177 l 29 197 z"},"D":{"x_min":0,"x_max":669,"ha":669,"o":"m 89 697 l 339 697 q 377 697 413 691 q 448 686 479 672 q 509 659 534 634 q 559 610 576 572 q 594 534 603 480 q 613 426 613 354 q 613 279 604 224 q 595 168 579 129 q 562 90 538 65 q 514 40 484 25 q 453 11 417 5 q 380 0 339 0 l 89 0 z m 307 109 q 332 109 355 110 q 379 111 399 119 q 419 126 436 141 q 453 156 465 183 q 477 210 484 252 q 490 294 490 355 q 490 412 484 451 q 478 490 466 516 q 454 542 438 556 q 421 571 401 578 q 380 585 357 586 q 333 588 307 588 l 206 588 l 206 109 z"},"^":{"x_min":0,"x_max":474,"ha":474,"o":"m 154 697 l 320 697 l 464 316 l 337 316 l 239 604 l 233 604 l 137 316 l 10 316 z"},"0":{"x_min":0,"x_max":671,"ha":671,"o":"m 336 -15 q 290 -15 253 -8 q 215 0 187 17 q 158 34 137 62 q 116 90 102 131 q 89 172 82 228 q 76 283 76 355 q 76 463 91 532 q 105 602 137 641 q 169 681 218 697 q 267 712 336 712 q 404 712 454 697 q 503 681 534 641 q 566 602 581 532 q 596 463 596 355 q 596 283 589 228 q 583 172 569 131 q 556 90 535 62 q 514 34 485 17 q 456 0 419 -8 q 382 -15 336 -15 z m 336 93 q 377 93 404 109 q 430 125 445 157 q 460 189 465 238 q 471 288 471 355 q 471 422 465 469 q 460 517 445 546 q 430 576 404 589 q 377 602 336 602 q 294 602 268 589 q 242 576 227 546 q 212 517 207 470 q 202 423 202 355 q 202 288 207 238 q 212 188 227 156 q 242 124 268 108 q 294 93 336 93 z"},"F":{"x_min":0,"x_max":542,"ha":542,"o":"m 89 697 l 508 697 l 508 588 l 206 588 l 206 378 l 470 378 l 470 269 l 206 269 l 206 0 l 89 0 z"},"`":{"x_min":0,"x_max":319,"ha":319,"o":"m 240 562 q 203 584 171 604 q 157 613 143 622 q 129 631 116 639 q 103 647 93 654 q 83 661 76 666 q 52 684 41 697 q 30 709 30 722 q 30 730 35 739 q 40 748 49 759 q 57 770 66 778 q 75 786 82 791 q 90 797 97 802 l 289 622 l 240 562 z"},"k":{"x_min":0,"x_max":560,"ha":560,"o":"m 81 759 l 197 759 l 197 327 l 273 327 l 407 515 l 540 515 l 364 275 l 541 0 l 408 0 l 259 231 l 197 231 l 197 0 l 81 0 z"},"u":{"x_min":0,"x_max":608,"ha":608,"o":"m 81 515 l 197 515 l 197 164 q 197 144 199 129 q 202 115 211 106 q 220 97 236 93 q 253 89 281 89 q 310 89 334 92 q 358 95 375 99 q 395 104 411 110 l 411 515 l 527 515 l 527 0 l 442 0 l 428 38 q 401 23 369 11 q 342 1 306 -7 q 270 -15 230 -15 q 154 -15 118 25 q 81 65 81 151 z"},"]":{"x_min":0,"x_max":332,"ha":332,"o":"m 128 -51 l 128 839 l 0 839 l 0 949 l 243 949 l 243 -161 l 0 -161 l 0 -51 z"},"U":{"x_min":0,"x_max":686,"ha":686,"o":"m 86 697 l 203 697 l 203 231 q 203 189 210 163 q 217 136 234 120 q 251 105 278 99 q 305 93 344 93 q 379 93 405 99 q 431 105 449 120 q 466 136 475 163 q 483 189 483 231 l 483 697 l 600 697 l 600 224 q 600 163 586 118 q 572 73 541 44 q 510 14 462 0 q 413 -15 344 -15 q 274 -15 226 -1 q 177 14 146 43 q 115 72 101 117 q 86 162 86 222 z"},"o":{"x_min":0,"x_max":580,"ha":580,"o":"m 46 258 q 46 323 60 374 q 74 424 104 459 q 134 494 180 512 q 226 530 290 530 q 354 530 400 512 q 446 494 476 459 q 506 424 520 374 q 534 323 534 258 q 534 192 520 141 q 506 90 476 56 q 446 21 400 3 q 354 -15 290 -15 q 226 -15 180 3 q 134 21 104 56 q 74 90 60 141 q 46 192 46 258 z m 290 83 q 329 83 353 94 q 376 106 390 128 q 403 150 407 183 q 412 215 412 258 q 412 300 407 332 q 403 365 390 387 q 376 409 353 421 q 329 432 290 432 q 252 432 228 421 q 204 409 191 387 q 177 365 173 332 q 168 300 168 258 q 168 215 173 183 q 177 150 191 128 q 204 106 228 94 q 252 83 290 83 z"},"N":{"x_min":0,"x_max":743,"ha":743,"o":"m 89 697 l 283 697 l 537 109 l 540 109 q 539 126 539 145 q 538 160 538 178 q 538 196 538 213 l 538 697 l 654 697 l 654 0 l 464 0 l 249 490 q 240 511 232 528 q 225 546 219 559 q 212 575 207 588 l 205 588 l 205 0 l 89 0 z"},"+":{"x_min":0,"x_max":497,"ha":497,"o":"m 196 274 l 25 274 l 25 373 l 195 373 l 195 557 l 303 557 l 303 373 l 472 373 l 472 276 l 304 276 l 304 92 l 196 92 z"},"G":{"x_min":0,"x_max":659,"ha":659,"o":"m 56 355 q 56 455 78 523 q 100 591 140 633 q 180 675 237 693 q 293 711 364 711 q 411 711 448 706 q 486 701 513 695 q 543 688 568 680 l 568 592 q 542 595 511 597 q 485 599 452 600 q 419 602 384 602 q 323 602 283 589 q 243 576 219 547 q 196 518 186 470 q 177 423 177 355 q 177 285 187 236 q 197 186 220 154 q 243 123 280 108 q 318 93 373 93 q 397 93 417 94 q 436 96 450 98 q 466 101 478 104 l 478 283 l 351 283 l 351 390 l 594 390 l 594 33 q 565 20 531 9 q 502 0 462 -8 q 422 -15 376 -15 q 300 -15 241 2 q 182 19 141 62 q 100 104 78 175 q 56 247 56 355 z"},"q":{"x_min":0,"x_max":596,"ha":596,"o":"m 243 -15 q 197 -15 162 -1 q 127 13 103 45 q 80 77 68 129 q 56 181 56 258 q 56 328 67 380 q 78 431 101 464 q 124 498 158 514 q 192 530 237 530 q 275 530 307 521 q 340 513 364 503 q 393 492 417 477 l 430 515 l 515 515 l 515 -237 l 398 -237 l 398 20 q 377 10 353 2 q 331 -4 303 -10 q 275 -15 243 -15 z m 285 89 q 310 89 331 91 q 352 93 367 96 q 385 99 398 103 l 398 405 q 381 411 361 416 q 344 419 322 423 q 300 427 275 427 q 245 427 226 419 q 208 411 197 392 q 186 373 182 341 q 178 309 178 261 q 178 206 182 172 q 187 138 199 120 q 211 101 232 95 q 253 89 285 89 z"},"d":{"x_min":0,"x_max":595,"ha":595,"o":"m 229 -15 q 185 -15 152 -1 q 119 13 97 45 q 75 77 64 129 q 52 181 52 255 q 51 330 63 382 q 75 434 97 467 q 120 500 153 515 q 186 530 228 530 q 266 530 297 524 q 328 518 351 511 q 378 503 398 493 l 398 759 l 515 759 l 515 0 l 415 0 l 408 41 q 386 25 358 13 q 334 2 301 -7 q 268 -15 229 -15 z m 270 89 q 295 89 318 93 q 341 96 359 101 q 380 106 398 114 l 398 408 q 378 413 356 417 q 337 421 312 424 q 288 427 262 427 q 235 427 218 418 q 201 409 191 388 q 181 367 177 333 q 174 298 174 248 q 174 205 177 174 q 181 144 191 125 q 201 106 220 97 q 239 89 270 89 z"},"1":{"x_min":0,"x_max":398,"ha":398,"o":"m 170 588 l 42 588 l 75 697 l 287 697 l 287 0 l 170 0 z"},"5":{"x_min":0,"x_max":551,"ha":551,"o":"m 71 103 q 94 100 118 98 q 139 96 165 94 q 190 93 215 93 q 256 93 284 100 q 313 107 331 122 q 349 137 357 160 q 366 183 366 216 q 366 248 361 270 q 356 292 344 306 q 331 319 310 325 q 288 331 255 331 q 223 331 194 329 q 165 326 142 324 q 115 321 92 317 l 92 698 l 463 698 l 463 588 l 208 588 l 208 431 q 219 433 232 434 q 244 435 258 436 q 273 437 289 437 q 338 437 375 427 q 412 417 437 391 q 461 365 474 321 q 486 276 486 207 q 486 141 468 98 q 450 55 419 30 q 388 4 345 -5 q 303 -15 253 -15 q 212 -15 179 -10 q 146 -5 122 1 q 93 8 71 17 z"}}}
